# xmcd CD database file
#
# Track frame offsets:
#	182
#	20495
#	42605
#	58052
#	75007
#	89020
#	112502
#	182130
#	233900
#	286710
#
# Disc length: 4326 seconds
#
# Revision: 0
# Processed by: cddbd v1.5PL3 Copyright (c) Steve Scherf et al.
# Submitted via: CDex 1.50Beta7
#
DISCID=7610e40a
DTITLE=Duke Ellington - 1947-1952 volume 5
DYEAR=1988
DGENRE=Jazz
TTITLE0=Liberian Suite/I Like the Sunrise
TTITLE1=Liberian Suite/Dance N°1
TTITLE2=Liberian Suite/Dance N°2
TTITLE3=Liberian Suite/Dance N°3
TTITLE4=Liberian Suite/Dance N°4
TTITLE5=Liberian Suite/Dance N°5
TTITLE6=Masterpieces By Ellington/Mood Indigo
TTITLE7=Masterpieces By Ellington/Sophisticated Lady
TTITLE8=Masterpieces By Ellington/The Tattooed Bride
TTITLE9=Masterpieces By Ellington/Solitude
EXTD=YEAR: 1988
EXTT0=
EXTT1=
EXTT2=
EXTT3=
EXTT4=
EXTT5=
EXTT6=
EXTT7=
EXTT8=
EXTT9=
PLAYORDER=
